HIERARCHY
ROOT Hips
{
	OFFSET 0.000000 0.000000 0.000000 
	CHANNELS 6 Xposition Yposition Zposition Zrotation Yrotation Xrotation
	JOINT LeftUpLeg
	{
		OFFSET 1.363060 -1.794630 0.839290 
		CHANNELS 3 Zrotation Yrotation Xrotation
		JOINT LeftLeg
		{
			OFFSET 2.448110 -6.726130 0.000000 
			CHANNELS 3 Zrotation Yrotation Xrotation
			JOINT LeftFoot
			{
				OFFSET 2.562200 -7.039590 0.000000 
				CHANNELS 3 Zrotation Yrotation Xrotation
				JOINT LeftToeBase
				{
					OFFSET 0.157640 -0.433110 2.322550 
					CHANNELS 3 Zrotation Yrotation Xrotation
					End Site
					{
						OFFSET 0.000000 0.000000 0.000000 
					}
				}
			}
		}
	}
	JOINT RightUpLeg
	{
		OFFSET -1.305520 -1.794630 0.839290 
		CHANNELS 3 Zrotation Yrotation Xrotation
		JOINT RightLeg
		{
			OFFSET -2.542530 -6.985550 0.000000 
			CHANNELS 3 Zrotation Yrotation Xrotation
			JOINT RightFoot
			{
				OFFSET -2.568260 -7.056230 0.000000 
				CHANNELS 3 Zrotation Yrotation Xrotation
				JOINT RightToeBase
				{
					OFFSET -0.164730 -0.452590 2.363150 
					CHANNELS 3 Zrotation Yrotation Xrotation
					End Site
					{
						OFFSET 0.000000 0.000000 0.000000 
					}
				}
			}
		}
	}
	JOINT Spine
	{
		OFFSET 0.028270 2.035590 -0.193380 
		CHANNELS 3 Zrotation Yrotation Xrotation
		JOINT Spine1
		{
			OFFSET 0.056720 2.048850 -0.042750 
			CHANNELS 3 Zrotation Yrotation Xrotation
			JOINT Neck1
			{
				OFFSET -0.054170 1.746240 0.172020 
				CHANNELS 3 Zrotation Yrotation Xrotation
				JOINT Head
				{
					OFFSET 0.104070 1.761360 -0.123970 
					CHANNELS 3 Zrotation Yrotation Xrotation
					End Site
					{
						OFFSET 0.000000 0.000000 0.000000 
					}
				}
			}
			JOINT LeftArm
			{
				OFFSET 3.362410 1.200890 -0.311210 
				CHANNELS 3 Zrotation Yrotation Xrotation
				JOINT LeftForeArm
				{
					OFFSET 4.983000 -0.000000 -0.000000 
					CHANNELS 3 Zrotation Yrotation Xrotation
					JOINT LeftHand
					{
						OFFSET 3.483560 -0.000000 -0.000000 
						CHANNELS 3 Zrotation Yrotation Xrotation
						JOINT LeftHandIndex1
						{
							OFFSET 0.715260 -0.000000 -0.000000 
							CHANNELS 3 Zrotation Yrotation Xrotation
							End Site
							{
								OFFSET 0.000000 0.000000 0.000000 
							}
						}
					}
				}
			}
			JOINT RightArm
			{
				OFFSET -3.136600 1.374050 -0.404650 
				CHANNELS 3 Zrotation Yrotation Xrotation
				JOINT RightForeArm
				{
					OFFSET -5.241900 -0.000000 -0.000000 
					CHANNELS 3 Zrotation Yrotation Xrotation
					JOINT RightHand
					{
						OFFSET -3.444170 -0.000000 -0.000000 
						CHANNELS 3 Zrotation Yrotation Xrotation
						JOINT RightHandIndex1
						{
							OFFSET -0.622530 -0.000000 -0.000000 
							CHANNELS 3 Zrotation Yrotation Xrotation
							End Site
							{
								OFFSET 0.000000 0.000000 0.000000 
							}
						}
					}
				}
			}
		}
	}
}
MOTION
Frames: 7
Frame Time: 0.041667
-1.058558 17.837333 -2.971462 0.354440 -21.649161 8.051562 -14.842486 -2.349097 -18.085140 1.130525 9.591402 29.835219 -0.740094 4.974263 -6.320045 0.373200 -3.923800 -10.862400 6.971784 11.920497 -22.171083 -2.288391 -11.180400 33.441625 -1.062617 2.132302 -2.534337 -0.008700 0.602200 -1.654900 0.554849 -0.515863 -1.543822 3.432730 0.061037 0.711675 3.392469 -4.160671 13.861545 2.937400 -2.785500 10.930400 -70.616186 -1.888635 42.033992 124.577789 -57.516096 -90.605929 0.644443 -0.746726 10.530659 -7.125000 0.000000 0.000000 72.779853 4.660325 37.637528 -139.023645 45.485759 -103.637762 0.894356 -0.502555 -0.785742 7.125000 0.000000 0.000000 
-1.081792 17.840390 -2.959540 0.394090 -21.610676 7.946117 -14.794110 -2.437040 -17.854895 1.100308 9.542111 29.685305 -0.785877 5.094826 -6.162592 0.402700 -4.074400 -11.285900 7.076752 11.889192 -21.879724 -2.258294 -11.134713 33.332877 -1.183111 2.668782 -2.204237 -0.001400 -0.244000 0.670400 0.535667 -0.404251 -1.584769 3.415031 0.120190 0.614240 3.459292 -4.149463 13.870737 2.980300 -2.781100 10.920000 -70.499526 -2.363860 42.190707 124.575686 -57.490718 -90.610127 0.637202 -0.749409 9.883117 -7.125000 0.000000 0.000000 72.600022 4.916663 37.620957 -138.788996 45.636004 -103.479577 0.894258 -0.493872 -0.911950 7.125000 0.000000 0.000000 
-1.102376 17.845689 -2.947923 0.468922 -21.502390 7.829000 -14.783002 -2.545620 -17.647338 1.077397 9.504480 29.575787 -0.786132 5.075811 -6.038783 0.373700 -3.926500 -10.870100 7.099934 11.972989 -21.569126 -2.237179 -11.099075 33.233777 -1.143812 2.463763 -2.489842 -0.004700 -0.443400 1.218300 0.496723 -0.388423 -1.608185 3.317528 0.130580 0.581886 3.489281 -4.072218 14.083835 2.992100 -2.744900 11.030300 -70.355110 -2.848414 42.157405 124.667680 -57.435620 -90.688594 0.628955 -0.750729 9.163703 -7.125000 0.000000 0.000000 72.443243 5.138992 37.712066 -138.498414 45.823359 -103.274263 0.896747 -0.494281 -0.984522 7.125000 0.000000 0.000000 
-1.124387 17.849154 -2.942115 0.483419 -21.421238 7.739866 -14.711170 -2.636574 -17.467902 1.061067 9.477314 29.495077 -0.789885 5.080509 -5.994204 0.350400 -3.803100 -10.523400 7.165498 12.188521 -21.306286 -2.221476 -11.069844 33.150444 -0.999847 1.799907 -3.129878 -0.000200 -0.090500 0.248700 0.457559 -0.342253 -1.628073 3.188932 0.156275 0.544895 3.552440 -4.013352 14.256900 3.022400 -2.715100 11.113200 -70.158828 -3.375183 42.156165 124.729687 -57.388390 -90.746915 0.622469 -0.753894 8.538841 -7.125000 0.000000 0.000000 72.374674 5.327744 37.768881 -138.146828 46.048631 -103.025735 0.897063 -0.497568 -0.868772 7.125000 0.000000 0.000000 
-1.147213 17.848848 -2.939465 0.501510 -21.407650 7.632929 -14.639568 -2.848440 -17.242169 1.055914 9.465419 29.468717 -0.841857 5.255086 -6.085587 0.352100 -3.812600 -10.550200 7.227410 12.397988 -21.109219 -2.208539 -11.046528 33.091213 -0.909470 1.420190 -3.368573 -0.001900 0.280000 -0.769300 0.428289 -0.246921 -1.651361 3.105133 0.206948 0.477119 3.551788 -3.954229 14.336948 3.037300 -2.695400 11.120800 -70.040601 -3.882006 42.205908 124.713952 -57.367947 -90.749374 0.620115 -0.761410 8.153062 -7.125000 0.000000 0.000000 72.260627 5.443006 37.784698 -137.821332 46.256020 -102.796860 0.895813 -0.497024 -0.817979 7.125000 0.000000 0.000000 
-1.168816 17.847524 -2.936408 0.454134 -21.333049 7.545162 -14.520322 -3.114610 -16.988536 1.062221 9.469985 29.494564 -0.904980 5.473779 -6.246217 0.353300 -3.818800 -10.567300 7.342366 12.541206 -20.932441 -2.203290 -11.030625 33.077938 -0.927423 1.541991 -3.138994 -0.000000 -0.031600 0.086900 0.432540 -0.189197 -1.729928 3.072320 0.243706 0.219702 3.814852 -3.899174 14.224264 3.205800 -2.666900 11.024100 -69.988450 -4.230817 42.225589 124.705151 -57.348938 -90.756124 0.619656 -0.767602 7.755297 -7.125000 0.000000 0.000000 72.064569 5.415038 37.809505 -137.552866 46.424332 -102.610830 0.891829 -0.490802 -0.976333 7.125000 0.000000 0.000000 
-1.190113 17.846810 -2.930396 0.331239 -21.244612 7.493285 -14.340214 -3.336851 -16.765295 1.073207 9.483419 29.540950 -0.953421 5.652067 -6.432658 0.347300 -3.786600 -10.477100 7.524476 12.702366 -20.737278 -2.207699 -11.026079 33.108101 -0.928991 1.586385 -3.040644 -0.002900 -0.350600 0.963200 0.439821 -0.100695 -1.759645 2.982859 0.290726 0.097168 3.995304 -3.883037 14.139799 3.311100 -2.651700 10.977600 -69.963876 -4.774349 42.237528 124.661007 -57.340051 -90.738888 0.621183 -0.772126 7.292912 -7.125000 0.000000 0.000000 71.892843 5.757357 37.807455 -137.207856 46.631960 -102.375558 0.889355 -0.476308 -1.153149 7.125000 0.000000 0.000000 
